<svg xmlns="http://www.w3.org/2000/svg" width="1048.797" height="290.443" viewBox="0 0 1048.797 290.443"><path id="Trac&#xE9;_37789" data-name="Trac&#xE9; 37789" d="M760.023,67.843c.53.717-.127,1.671-.244,2.492-.466,3.3-.28,6.648-.893,9.943-1.536,8.252-2.262,16.638-3.478,24.943-.512,3.506-1.382,6.941-2.239,10.388-1.495,6.015-3.2,11.972-4.586,18.017a5.41,5.41,0,0,1-.23.642q-.7,2.265-1.4,4.528a5.087,5.087,0,0,1-.39,2.85c-.8,2.843-.839,5.911-2.244,8.574a6.341,6.341,0,0,1-.625,3.114,11.289,11.289,0,0,1-.8,3.168,104.619,104.619,0,0,1-3.038,12.473c-.161.023-.324.035-.485.053.161-.019.324-.03.485-.053q-.164.516-.327,1.029h0a34.38,34.38,0,0,1-1.536,6.265q-1.133,3.783-2.263,7.563a32.49,32.49,0,0,1-1.984,6.467l-.491.854a23.291,23.291,0,0,1-1.454,5.918h0a30.28,30.28,0,0,1-1.274,5.7c-1.554,5.55-3.07,11.109-4.711,16.631-1.057,3.555-2.018,7.139-3.3,10.613-.837,2.019-1.273,4.227-2.537,6.045a27.457,27.457,0,0,1-2.638,5.766c-.654,1.2-1.011,2.572-1.96,3.587a142.446,142.446,0,0,0-5.648,13.4,13.966,13.966,0,0,1-2.243,4.977c-.217-2,1.169-3.348,1.85-4.98-.023-.331.2-.754-.106-.971-.289-.2-.636-.036-.846.27-.617.909-1.753,1.332-2,2.63a1.584,1.584,0,0,1-1.25,1.228c-.816.1-1.457.256-1.672,1.228a.66.66,0,0,1-.477.416c-2.4-.042-3.331,2.6-5.328,3.273-.085.311-.559.741-.476.728,1.4-.224,1.755,2.942,3.6,1.231.305-.283.927-.175,1.53.243a8.587,8.587,0,0,1-7.2.543,3.131,3.131,0,0,0-1.871-.4c-1.744.46-2.531-.757-3.275-2.026a6.078,6.078,0,0,0-1.818-1.924l-1.108.053a22.864,22.864,0,0,0,1.465,4.435,5.4,5.4,0,0,1-1.961-4.385c-.455-1.491-.609-3.139-1.939-4.172a2.822,2.822,0,0,1-2.627-2.057.9.9,0,0,0-.277-.415,7.435,7.435,0,0,1-3.2-5.11,112.546,112.546,0,0,1-2.345-14.588,6.66,6.66,0,0,1-.317-2.111c-.011-.455-.021-.912-.031-1.367a5.07,5.07,0,0,1-.143-2.1,2.205,2.205,0,0,1-.176-1.364l-.347-6.607q0-1.207,0-2.413l-.416-.71c-1.578,1.428-2.119,3.5-2.95,5.386-.273.619-.488,1.265-.729,1.9-.683,2.032-1.406,4.049-2.033,6.1a19.893,19.893,0,0,1-2.05,3.645q-1.76,4.006-3.523,8.014h0a200.23,200.23,0,0,1-11.169,20.439,35.7,35.7,0,0,0-2.224,4.9,5.32,5.32,0,0,1-.886,1.994c-.241.509-.3.981-1.041,1.25a4.689,4.689,0,0,0-2.825,2.6c-.315.749-.743,1.363-1.371.145-.292-.566-.623-.04-.9.182-.856,2.708-2.466,4.993-3.758,7.635a4.658,4.658,0,0,0-2.5-3.37c-.628-.371-.222-1.62.683-2.046a7.6,7.6,0,0,0,2.494-1.58c-.036-.645.909-1.743-.593-1.723-1,.013-2.456-.438-2.454,1.434,0,1.4-.984,1.668-1.915,2.386.116-1.217.211-2.224.319-3.357-.7.058-1.1.279-1.194.941-.044.884.287,1.837-.563,2.886-.349-1.361-.541-2.448.08-3.555A4.11,4.11,0,0,1,633.02,274a5.908,5.908,0,0,0,.206-2.373l.307.334a.942.942,0,0,0,.339-.223.962.962,0,0,1-.339.223l-.307-.334c-.812-2.82.085-5.544.45-8.288.233-1.752.625-3.479.947-5.217a11.266,11.266,0,0,1,1.071-5.008,54.075,54.075,0,0,0,3.021-9.6c.308-2.265,1.48-4.193,2.2-6.3.041-1.705,1-3.123,1.314-4.743q.076-.366.154-.731.421-1.231.845-2.461l1.458-4.129q.814-2.252,1.626-4.5c-.008-.276-.1-.581.241-.727q2.03-5.489,4.07-10.973a3.935,3.935,0,0,1,.556-.8l.388-1.387a3.572,3.572,0,0,1,.651-1.724c.384-1.9,1.734-3.348,2.2-5.216a5,5,0,0,1,.184-1q2.255-5.569,4.541-11.122c.922-3.062,2.874-5.63,3.726-8.728q2.1-5.207,4.2-10.417a4.163,4.163,0,0,1,.578-1.714q.771-2.58,1.54-5.161.219-.869.436-1.74a1.177,1.177,0,0,1,.67.2,1.177,1.177,0,0,0-.67-.2,2.048,2.048,0,0,1,.458-1.421l1.439-4.116c.6-1.691.275-3.64,1.307-5.208a4.3,4.3,0,0,1,.664-1.741,7.219,7.219,0,0,1,.944-2.765c2.261-6.759,3.745-13.767,5.869-20.571.879-2.815,1.543-5.706,2.3-8.563a123.377,123.377,0,0,1,3.58-12.494,84.264,84.264,0,0,1,2.735-8.279,41.163,41.163,0,0,1,3.769-8.511.576.576,0,0,1,.258-.6,17.085,17.085,0,0,1,2.352-4.132,21.168,21.168,0,0,1,5.088-6.62c1.147-1.038,2.7-.676,4.329.854a6.284,6.284,0,0,1,1.515,2.425,52.448,52.448,0,0,1,2.72,12.015,95.866,95.866,0,0,1,.207,14.319,159.735,159.735,0,0,1-.759,16.568q-.613,10.1-1.826,20.145c-.3,3.354-.576,6.711-.9,10.063-.394,4.041-.83,8.076-1.247,12.112q-.11.869-.219,1.739c-.254,2.074-.011,4.205-.661,6.232a36.891,36.891,0,0,1-.525,6.644,8.021,8.021,0,0,1-.5,3.768c.172,1.072-.3,2.071-.327,3.12-.647,5.541-1.522,11.053-1.889,16.63-.008.143-.156.277-.239.415-.238,4.973-.469,9.947-.725,14.919a6.942,6.942,0,0,1-.328,1.318,2.694,2.694,0,0,1,0,1.741,32.422,32.422,0,0,1,.01,6.287,2.545,2.545,0,0,0-.537.266,2.545,2.545,0,0,1,.537-.266c.037.46.075.921.112,1.38l.1,0,0,.11c.938-.658.98-1.838,1.382-2.788,1.031-2.438,1.941-4.934,2.9-7.408.827-3.681,2.341-7.116,3.359-10.741q4.178-14.873,7.8-29.9c.08-.331.213-.647.322-.97h0a4.715,4.715,0,0,1,.414-1.835.141.141,0,0,1,.019-.194h0q1-3.692,2.009-7.383h0c.819-3.224,1.852-6.409,2.385-9.686a28.432,28.432,0,0,1,1.765-6.567c-.42-2.187.6-4.159,1.044-6.148,2.324-10.391,4.93-20.711,7.445-31.054a3.582,3.582,0,0,1,.273-.607c.771-3.941,1.947-7.755,3.054-11.6,1.456-5.058,2.552-10.233,3.824-15.352.9-3.612,1.5-7.3,2.611-10.855a45.069,45.069,0,0,1,1.346-6.191q1.977-9.228,3.992-18.448,1.179-6.991,2.845-13.868A15.718,15.718,0,0,1,749.7,30.5a15.453,15.453,0,0,1-1.2,5.581c.432,1.129.859,2.25-.475,3.084-.091.058-.127.327-.1.478.455,2.4-.251,4.867.387,7.253.991-.075.935-.918.964-1.747,1.023.425,1.672,2.041,2.794,1.1a3.592,3.592,0,0,0,.913-3.084,6.286,6.286,0,0,0,1.379,2.057c1.1.981.307,2.516.031,3.675-.254,1.067.23,1.328.768,1.778.934,1.955.4,4.119.766,6.122.384,2.094-.247,4.177.124,6.106a20.534,20.534,0,0,1,.384,5.285c-.016.27,0,.741.438.8.5.071.7-.357.75-.74.188-1.426.35-2.86.459-4.3.1-1.37-.29-2.765.92-3.967.5-.5.369-1.713.623-2.588.044,1.2.872,2.353-.083,3.591-.467.607-.027,1.705.086,2.217C759.962,64.753,758.934,66.369,760.023,67.843ZM134.706,86.382c1.927.043,3.855-.006,5.783-.013a3.171,3.171,0,0,0,2.123-.656A11.743,11.743,0,0,0,148.2,84.6a54.667,54.667,0,0,0,9.748-2.825,1.051,1.051,0,0,0,1.1-.526h.129l.119-.049a.947.947,0,0,0,.985-.332,29.991,29.991,0,0,0,5.267-2.091c3.314-2.071,6.929-3.463,10.265-5.486,2.755-1.672,5.7-2.994,8.355-4.882a10.4,10.4,0,0,0,3.246-1.861c1.3-1.056,1.657-3.6,4.043-3.022.06.016.162-.137.236-.221,1.725-1.952,3.978-3.161,5.962-4.747a2.1,2.1,0,0,0,.886-1.88c-.027-1.26.169-2.334,1.857-2.263,1.477.064,1.793-.954.879-2.36h0c.159-1.351,1.188-2.068,1.936-2.99,1.488-.507,2.334-2.01,3.7-2.691,2.133-1.059,2.426-2.7,1.465-4.814a10.353,10.353,0,0,1-.444-1.637h0c3.6-.752,3.3-4.145,4.128-6.79-.711-.111-1.473,1.236-2.084-.134a3.35,3.35,0,0,1,2.355-3.493c1.027-.436,2.1-1.266,2.2-2.117.169-1.465,1.188-1.908,1.867-2.783s1.72-1.184,2.419-1.99c.829-.09.86-.773.939-1.421l.027-.016.541-.155-.274-.486q.061-.817.124-1.633c1.9-2.74,4.346-5.064,5.65-8.3a22.159,22.159,0,0,0-2.2,1.624c-1.488,1.134-2.614,2.953-4.438,3.38a3.429,3.429,0,0,0-2.386,1.75,4.871,4.871,0,0,0-.9.962c-.8,1.507-1.7.3-2.268-.068-.824-.536-.1-1.276.3-1.834.537-.747,1.119-1.458,1.821-2.364-1.22-.143-2.306-.048-2.871-1.173.124-.556.288-1.442.914-1.081,1.239.714,1.552-.286,1.973-.975a6.268,6.268,0,0,1,2.1-2.281c.872-.525,1.642-1.282.7-2.552l-7.1,6.818a.546.546,0,0,0-.507.393c-2.591-.134.3-1.684-.739-2.411l-7.784,4.466a24.8,24.8,0,0,0-6.2,2.88,1.34,1.34,0,0,0-1.011.541,8.008,8.008,0,0,0-3.174,1.617,69.116,69.116,0,0,0-10.205,4.328,2.328,2.328,0,0,0-1.693.646,4.115,4.115,0,0,0-1.894.788l-13.07,5.643A43.281,43.281,0,0,0,157.32,35a42.679,42.679,0,0,0-7.537,3.4l-4.208,1.577-.665.337a.612.612,0,0,0-.664.3l-.973.38a17.179,17.179,0,0,0-5.33,2.338l-2.52,1.127a85.939,85.939,0,0,0-13.608,6.992c-1.421.935-3.155,1.528-4.132,2.989a20.4,20.4,0,0,0-3.009,6.865c-.125.554-.21,1.172.173,1.457,1.68,1.249.448,2.361-.054,3.519-1.508,1.292-1.553,3.749-3.326,4.986-.589-1.413.918-2.564.012-4.061a78.25,78.25,0,0,0-3.166,7.769c-1.394,3.958-2.849,7.894-4.264,11.845-.305.857-.308,2-.857,2.564C101.2,91.45,101.355,94.473,100,96.8a2.135,2.135,0,0,0-.356,1.785,1.348,1.348,0,0,1,.158.02,1.335,1.335,0,0,0-.159-.02,5.079,5.079,0,0,0-.733,3.8c-.251,2.422-1.513,4.425-2.423,6.574a.2.2,0,0,0-.11.178,5.436,5.436,0,0,0-1.188,2.6,35.723,35.723,0,0,0-2.278,6.249,2.226,2.226,0,0,0-.634,1.739,1.667,1.667,0,0,0-.684,1.377c-.382.532-.943.955-.921,1.728q-.352,1.045-.7,2.09a2.381,2.381,0,0,0-.586,1.293A33.067,33.067,0,0,0,87.3,131.5h0a23.784,23.784,0,0,0-1.483,4.849,3.288,3.288,0,0,0-.758,2.1l-.4.932a25.093,25.093,0,0,0-2.768,5.62c-.715,1.84-1.983,3.448-2.152,5.523h0a.673.673,0,0,0-.29.671,13.449,13.449,0,0,0-2.137,4.636c-1.111,1.62-1.361,3.643-2.236,5.373a1.344,1.344,0,0,0-.68.928c-.654,2.575-2.491,3.341-4.722,3.612-3.7.448-7.359,1.335-11.116,1.172-.7-.082-1.4-.136-2.1-.256a3.726,3.726,0,0,0-4.325,2.162,2.952,2.952,0,0,1-1.776,1.655,4.477,4.477,0,0,0-2.08,1.6,8.368,8.368,0,0,0-1.71,7.375c.211,1.188-.536,3.126,1.808,2.8.08-.012.218.241.29.392.5,1.043,1.183.883,2.045.483.721-.334,1.6-.652,2.243.214,1.871,2.531,4.235,3.63,7.271,3.018a1.114,1.114,0,0,1,1.282.526c.189.438-.1.863-.454,1.2a1.907,1.907,0,0,0-.6,1.548c-.514.22-.624.763-.857,1.207-1.984,3.794-4,7.568-5.943,11.388-1.46,2.879-2.815,5.817-4.218,8.729a6.328,6.328,0,0,0-1.492,3.012,8.491,8.491,0,0,0-1.255,2.438c-.695,1.27-1.454,2.509-2.059,3.825-.406.884-1.008,1.78-.653,2.885-1.729,1.6-2.2,3.864-3.19,6.415,2.563-1.728,2.6-4.278,3.3-6.459a1.561,1.561,0,0,0,1.465-1.14,19.69,19.69,0,0,1,2.174-4.763h0c.025-.224.048-.448.071-.672.42-1.1,1.641-1.578,1.9-2.795,1.575.233.6,1.121.313,1.668a37.414,37.414,0,0,0-2.3,4.925,5.218,5.218,0,0,0-.992,2.064q-1.459,2.757-2.916,5.513l.161.186-.161-.185q-1.59,2.645-3.182,5.291c-.123.224-.244.449-.365.673a9.568,9.568,0,0,1-1.047,1.295,16.827,16.827,0,0,0-4.907,8.391,30.82,30.82,0,0,0-2.67,4.821,7.953,7.953,0,0,0-1.509,3.574,101.635,101.635,0,0,0-4.988,10.3c-.143.077-.418.179-.41.227.335,1.95-.736,4.1-.059,5.743.957,2.321.011,3.678-1.074,5.258a7.819,7.819,0,0,1-.809,1.288c-1.539,1.47.262,3.883-1.6,5.214.53.22.7-.064.931-.165.454-.2.709-1.171,1.3-.64.446.4-.008,1.072-.151,1.619A19.576,19.576,0,0,1,21.124,285c-.226.422-.726.991-.213,1.38.586.444.835-.315,1.041-.717a2.274,2.274,0,0,1,3.2-1.273,1.323,1.323,0,0,0,1.683-.374c.733-.767,1.9-.714,2.9-.918.725-.147,1.048.574,1.4,1.025.4.5-.09.949-.379,1.347-.429.593-.89,1.159-1.318,1.753-.243.335-.837.691-.373,1.133.536.512.923-.176,1.165-.53a9.576,9.576,0,0,1,3.8-3.713c1.419-.895,2.123-2.783,3.918-3.152a31.02,31.02,0,0,0,10.338,3.61c1.792.373,3.587.727,5.38,1.091l3.587.5a17.029,17.029,0,0,0,5.929.139c1.179-.043,2.344,1.1,3.535.046,1.973.263,3.949.842,5.909-.075a4.345,4.345,0,0,0,2.61.022,5.173,5.173,0,0,0,2.706-3.08,5.177,5.177,0,0,1-2.708,3.081,27.16,27.16,0,0,0,9.149-.861c2.325-.418,4.76-.132,7.143-1.149-1.942-1.366-.4-1.568.4-2.01q1.137-.473,2.276-.944a12.325,12.325,0,0,0,3.264-.715c.478.056.954.111,1.311-.345l1.314-.3a2.2,2.2,0,0,0,1.619-.5h0a1.228,1.228,0,0,0,1.361-.4,7.644,7.644,0,0,0,2.9-.957c1.725-.175,2.879-2.2,4.849-1.656.341.094.463-.409.54-.738.106-.461.388-.584.808-.666.891-.172,1.767-.439,2.649-.669l-.027-.647a1.476,1.476,0,0,1-1.222-1.11,1.473,1.473,0,0,0,1.222,1.108c.008.217.018.434.027.649a3.6,3.6,0,0,0,2.656-.958,9.611,9.611,0,0,0,2.58-.733l.391-.353,1.231-.432a15.059,15.059,0,0,0,5.966-2.335l.135.023.135-.023a2.826,2.826,0,0,0,2.315-.984,22.5,22.5,0,0,0,5.681-2.675,21.815,21.815,0,0,0-3.829,1.113c-.424.153-.872.3-1.173-.159-.185-.286-.2-.786.056-.965,1-.7,1.754-2.017,2.652-2.387,1.573-.647,3.167-1.331,4.7-2.058,1.027-.487,2.655-.389,2.856-2.185.358-1.088.379-2.419,2.039-2.346.7.03.752-.523.2-1.02-.491-.444-.694-1.22-.116-1.439,2.6-.994,3.791-4.018,6.433-4.917.339-.116.909-.1.908-.767a5.238,5.238,0,0,0-2.55.445c-.3.08-.647.4-.883.019a.792.792,0,0,1,.29-1.048c.2-.171.512-.238.461-.77-1.124.173-2.28,1.2-3.422.107-.033-.032-.352.212-.489.373-.386.448-.741.977-1.224.111-.42-.75-.292-1.175.537-1.551,1.027-.465,2.2-.767,2.86-1.886,2.435-.181,4.271-1.846,6.35-2.9a.672.672,0,0,0,.4-.844c-.215-.473-.571-.142-.82.009-1.226.737-2.562,1.221-3.816,1.87-.732.38-1.727.5-2.126,1.478-.533-.182-1.374.331-1.585-.413-.218-.77.726-.857,1.127-1.276a7.859,7.859,0,0,1,.867-.75c.294-.228.995.046.827-.746-.144-.681-.655-.692-1.158-.649-.853.072-.883-.194-.954-1.147-.1-1.353.758-1.665,1.367-2.243.517-.49,1.171-.8,1.4-1.53-.224-.546-1.95-.238-.917-1.094,1.341-1.11,2.1-2.84,3.9-3.562a2.3,2.3,0,0,0-2.377.4c-1.346,1.369-3.3,1.765-4.538,3.278-.21.256-.639.564-.814.179-1.014-2.252-2.492-1.33-3.967-.762a1.591,1.591,0,0,1-2.186-1.684c.3-1.526-.529-1.039-.958-.666-1.235,1.075-2.764,1.474-4.122,2.252a4.593,4.593,0,0,0-2.969,1.254,1.164,1.164,0,0,0,.9.873,1.164,1.164,0,0,1-.9-.873l-.579.106a11.082,11.082,0,0,0-3.385,1.4c-.519-.145-.951.169-1.412.312-4,1.244-7.847,2.95-11.887,4.068a12.294,12.294,0,0,0-4.271,1.614,5,5,0,0,0-.794.091q-6.306,1.767-12.608,3.549l-8.2,1.837a3.816,3.816,0,0,0-1.949.415c-2.146.026-4.287.194-6.44.147-1.258-.026-2.694-.068-3.711.919a1.821,1.821,0,0,1-2.174.408c-1.171-.386-2.443-.743-3.378.617l-.491-.02.057-1.416c.244-.342.654-.562.7-1.056a19.244,19.244,0,0,0,1.889-3.571,7.376,7.376,0,0,1,1.969-3.369,4.414,4.414,0,0,0,1.624-3.6h0a2.41,2.41,0,0,0,1.051-1.279l.03-.036a2.054,2.054,0,0,0,1.164-1.181c.093-.107.185-.215.277-.325a3.914,3.914,0,0,0,.561-.578c3.238-4.971,6.78-9.717,9.833-14.826.7-.574,1.556-.993,1.737-2.056.345-.59.275-1.5,1.1-1.713,1.109-.28,1.032-.988.66-1.838,1.849.251,1.885-1.46,2.475-2.571a4.215,4.215,0,0,0,1.27-2.2q.384-.665.77-1.334a2.8,2.8,0,0,0,.912-1.766q.407-.683.811-1.364h0c.928-.973.82-2.4,1.393-3.535a9.639,9.639,0,0,0,1.717-3.759c.549-.541,1.015-1.234,1.857-1.276a24.757,24.757,0,0,0,6.284-1.58c2.154-.694,4.447-.929,6.455-2.116a29.175,29.175,0,0,0,10.483-4.8,5.034,5.034,0,0,0,2.862-.945c.38-.215.857-.457.6-1.012-.333-.712-.673-.11-1.008.084-.841.486-1.688.957-2.532,1.434a1.626,1.626,0,0,0-1.319-.04.946.946,0,0,1,.608-.75c3.49-1.551,6.65-3.776,10.041-5.537,1.074-.558,2.333-1.032,2.912-2.38a34.771,34.771,0,0,0-5.568,2.643,69.191,69.191,0,0,1-7.2,4.266c-.711.337-1.664.244-2,1.253l-.69.043c-.548-.634-1.333-.171-1.951-.475l.3-.426a2.3,2.3,0,0,0,1.795-.831,21.8,21.8,0,0,1,2.544-1.793c2.934-1.512,5.422-3.734,8.135-5.594,3.046-1.358,5.5-3.717,8.284-5.519a3.444,3.444,0,0,0-.063-.594c-3.141,1.36-5.669,3.5-8.261,5.523-.585-.078-1.274.082-1.536-.746l.061-.812a6.115,6.115,0,0,1,1.939-1.47c2.056-1.241,4.464-1.645,6.429-3.09a2.261,2.261,0,0,0,1.706-.247c1.84-.679,2.979-2.361,4.527-3.453l.337-.319a1.318,1.318,0,0,0,1.075-.8.246.246,0,0,0,.238-.162h0a66.683,66.683,0,0,1,5.9-3.945.409.409,0,0,0,.011-.714c-.576-.344-1.081-1.376-1.875-.316a2.116,2.116,0,0,1-2.379.587.805.805,0,0,1-.4-.66,3.018,3.018,0,0,1,1.571-2c.523-.285,1.135-.4,1.464-1a6.33,6.33,0,0,0-.8-.52,6.33,6.33,0,0,1,.8.52c1.1-.577,2.2-1.134,3.291-1.736,1.07-.594,2.5-1.085.918-2.711a2.091,2.091,0,0,1-.255-.431c1.631-.984,2.635-2.747,4.205-3.808a6.277,6.277,0,0,0,2.257-1.311,5.615,5.615,0,0,0,2.041-4.156c-.005-.262.18-.373.309-.549,1.792-2.451,4.109-4.431,5.681-7.071.664-1.114,1.916-1.688,2.349-2.992a10.274,10.274,0,0,1,1.774-3.2,1.762,1.762,0,0,0,1.237-1.551c.023-.259-.113-.319-.322-.292-.3-.068-.854.061-.846-.3.027-1.454-.992-3.194.931-4.208a.771.771,0,0,0,.436-1,5.025,5.025,0,0,0-1.774.715c-1.515,1.108-3.053,2.185-4.62,3.207-.477.311-.953,1.03-1.566.668-.666-.393-.581-1.344-.391-1.9.451-1.327-.541-1.226-1.128-1.656a1.373,1.373,0,0,0-2.017.194,17.213,17.213,0,0,1-3.652,2.851c-.508.247-1.038.895-1.613.48-.537-.386.477-.987-.142-1.757a12.953,12.953,0,0,1-4.338,5.009c.183.048.38.072.568.111-.188-.039-.386-.062-.568-.111l-2.556,1.356a18.5,18.5,0,0,0-3.581,1.976,33.767,33.767,0,0,0-6.568,3.244c-3.692,1.087-7,3.255-10.716,4.268-1.837-.178-3.179,1.418-4.932,1.543a17.675,17.675,0,0,0-4.274,1.648c.455-1.734.917-3.2,1.218-4.7a107.6,107.6,0,0,1,3.742-15.128,7.464,7.464,0,0,0,.721-2.979h0a41.565,41.565,0,0,0,2.054-7.733.7.7,0,0,0,.053-.785,1.312,1.312,0,0,0,.093-.329c.428-.234.331-.655.334-1.042a76.779,76.779,0,0,0,2.258-12.151c.331-1.471.856-2.918.541-4.477q.055-1.923.11-3.844l.119-1.7a4.916,4.916,0,0,0,.176-1.156C132.952,86.736,133.567,86.356,134.706,86.382ZM534.324,189.363c1.365-2.62,2.657-5.281,3.982-7.924,1.751-3.146,3.307-6.4,4.827-9.676h0c.788-1.929,2.219-3.5,2.784-5.552l1.86-4.438a23.791,23.791,0,0,0,2.687-6.334,81.636,81.636,0,0,0,5.857-13.356c.553-1.556.981-3.158,1.556-4.714,1.652-4.463,3.176-8.979,4.752-13.475.694-.367.7-1.119.874-1.772a8,8,0,0,0,.957-2.756q.366-1.036.73-2.074a1.634,1.634,0,0,0,.759-1.324.655.655,0,0,0,.339-.728c2.547-5.031,3.837-10.645,6.465-15.644.233-.444.368-1.28-.1-1.6-.48-.332-.965.225-1.357.617a5.747,5.747,0,0,0-1.341,2.1,43.826,43.826,0,0,1-5.124,10.31c-.5.064-.67-.1-.492-.66a4.025,4.025,0,0,0,.417-2.11q1.159-3.119,2.319-6.239a.218.218,0,0,0,.1-.238c.793-.647.375-1.795.929-2.541.417-.155.516-.571.591-.938.5-2.451,1.646-4.658,2.317-7.042,1.457-3.317,3.161-6.516,4.382-10.2-1.767,1.779-2.182,1.791-2.934.2a12.4,12.4,0,0,1-2.086,5.029c.142-1.954-.208-3.427.531-4.867a22.416,22.416,0,0,0,2.408-7.534c-.942,1.6-.97,3.785-2.762,4.812-.407.124-.57.042-.3-.4a4.174,4.174,0,0,0,.249-1.328c-.1-.64-.1-1.556-.671-1.8-1.115-.465-1.179-.361-.642-1.565.275-.617.822-1.4.335-1.872-.937-.9-.421-1.648-.072-2.45a5.877,5.877,0,0,0,.443-3.532c-1.517,1.743-1.928,3.88-3.482,5.336-.158-2.012-.954-4.023-.368-5.964,1.134-3.757,1.653-7.677,2.864-11.4a.478.478,0,0,0-.282-.621c-1.03.919-1.038,2.408-1.644,3.573-2.612,5.036-5.151,10.116-7.717,15.179-3.6,6.463-6.86,13.119-10.219,19.72-5.616,11.375-10.981,22.877-15.718,34.7h0c-.131.345-.26.691-.391,1.036a4.487,4.487,0,0,0-.71,1.793c-1.98,4.824-3.971,9.641-5.932,14.474-.51,1.256-.928,2.555-1.389,3.834-2.291,4.84-4.011,9.937-5.963,14.929l-2.255,5.925q-.634,1.561-1.266,3.122a12.642,12.642,0,0,0-1.194,2.987c-3.1,7.34-6.887,14.287-10.628,21.263-2.732,5.1-5.79,9.979-8.776,14.909a1.743,1.743,0,0,0-.658,1.082,46.766,46.766,0,0,0-3.5,5.453q-3.029,4.537-6.056,9.073l-2.547,3.113-3.339,3.486c-2.76,2.133-5.722,3.929-8.657,5.763-2.5,1.561-5.121,2.8-8.159,2.2-.362-.451-1.425-.332-1.235-1.106.6-2.413-.451-4.649-.474-7a134.592,134.592,0,0,1,2.708-26.181,1.848,1.848,0,0,1-1.051.46,1.848,1.848,0,0,0,1.051-.46.2.2,0,0,0,.085-.275,1.933,1.933,0,0,0,.319-1.458c2.6-8.707,4.263-17.7,7.161-26.317q.4-1.064.8-2.126a2.7,2.7,0,0,0,.681-1.386,36.927,36.927,0,0,0,3.8-7.954,68.23,68.23,0,0,1,4.535-10.644c.966-1.892,2.344-3.61,1.915-6.131-.21-1.23.848-2.385,1.47-3.5a.7.7,0,0,1,.564-.113c.567,1.208.732.107.912-.207a34.191,34.191,0,0,0,3.261-7.495c.989-3.454,2.449-6.738,3.1-10.324a20.743,20.743,0,0,0,.4-4.318c-.03-1.244.677-2.5,1.026-3.765a2.5,2.5,0,0,0-.541-2.714c-1.431-1.541-2.763-3.362-2.239-5.74.256-1.16-.026-2.08-.831-2.416s-1.558-1.078-2.788-.416a10.8,10.8,0,0,0-4.175,4.187c-2.571,4.288-4.463,8.957-6.66,13.455-2.614,5.349-5.129,10.751-7.674,16.138-2.12,4.49-4.188,9.009-6.484,13.406a16.111,16.111,0,0,0-.839,2.567h0c-.334.223-.7.552-.525.949.542,1.252-.173,2.158-.611,3.169a8.014,8.014,0,0,0-.338,1.477,9.257,9.257,0,0,1-1.186,3.163c-1.578,2.862-3.378,5.61-4.716,8.593-2.779,6.193-6.377,12-7.923,18.787-.692,3.041-2.045,5.88-2.6,8.976-.962,1.224-.743,2.818-1.128,4.221-1.473,5.359-3.073,10.758-2.789,16.406.263,5.22.049,10.442.639,15.685.431,3.838.933,7.486,2.551,10.937.187.4.233.97.758,1.042,1.513.21,1.733,1.646,1.961,2.708.534,2.484,1.18,4.7,3.9,5.308a3.312,3.312,0,0,1,1.056.429,28.654,28.654,0,0,0,12.057,4.308l.638.04a2.107,2.107,0,0,0,1.646.032,2.254,2.254,0,0,0,1.735-.113c1.917-.921,4-1.161,5.988-1.757.876-.262,1.964-.228,2.511-1.28.512-1.382,2.065-1.419,2.836-2.467,3.666-1.685,6.545-4.625,9.824-6.93.831.027,1.113-.837,1.716-1.2a46.305,46.305,0,0,0,5.572-3.479c3.6-3,6.852-6.492,10.182-9.852a11.98,11.98,0,0,0,2.535-3.127c2.208-3.126,4.46-6.217,6.611-9.387a101.248,101.248,0,0,0,6.8-10.741c2.945-4.909,5.7-9.94,8.385-15.013C530.637,196.284,532.513,192.842,534.324,189.363Zm98.111-16.839c1.126-.4,1.5-1.607,2.5-1.963a13.112,13.112,0,0,0,4.148-2.9c.219-.2.512-.344.289-.636-.6-.792.048-1.061.451-1.5.669-.734,1.281-1.528,1.917-2.295,1.753-1.494,3.613-2.9,4.2-5.409.785-.393,2.139-.926,1.484-1.838-1.123-1.565-.871-2.513.5-3.5a.929.929,0,0,0-1.154.066c-1.4.87-2.825,1.705-4.247,2.538-.6.348-1.039.564-1.117-.567-.123-1.749-1.356-2.263-2.754-1.223a13.367,13.367,0,0,1-2.934,1.808,1.856,1.856,0,0,1-.722.137c-.557-1.661-.957-.169-1.217.126a12.091,12.091,0,0,1-4.086,2.782c-1.334.632-2.675,1.246-4.012,1.869h0a6.656,6.656,0,0,0-2.291,1.009h0l-9.174,3.531c-2.885.345-5.6,1.448-8.578,2.254,1.033-3.886,2.026-7.629,3.021-11.372a8.042,8.042,0,0,0,.966-2.782,76.166,76.166,0,0,0,4.9-24.626,4.228,4.228,0,0,1,1.763-.212,30.541,30.541,0,0,0,9.04-.954,35.652,35.652,0,0,0,5.828-1.34,52.317,52.317,0,0,0,9.224-3.1c3.385-1.584,6.921-2.8,10.167-4.72,2.277-1.029,4.745-1.8,6.65-3.451s4.219-2.518,6.165-4.045c1.25-.983,3.074-1.442,2.882-3.7-.015-.178.217-.382.335-.572a9.973,9.973,0,0,0,1.274.108c.6-.022,1.088-.311.764-1.029-.514-1.142.15-1.681.871-2.214a20.053,20.053,0,0,1,3.354-2.36c1.571-.71,1.672-1.665.954-3.028-.328-.621-.53-1.337.273-1.52,2.045-.467,2.039-2.236,2.372-3.824h0a.393.393,0,0,0,.271-.126,7.231,7.231,0,0,0,3.156-2.629,8.647,8.647,0,0,0-3.171,2.273l-.469.238c-.352-.02-.788.308-1.026-.189a1.135,1.135,0,0,1,.144-1.292,4.065,4.065,0,0,1,1.845-1.364,1.937,1.937,0,0,0,1.423-1.3c.206-.843.837-1.124,1.269-1.671.813-1.028,2.526-.991,2.853-2.331a9.59,9.59,0,0,1,3.186-4.785,5.184,5.184,0,0,0,1.5-2.613c-2.255,2.49-5.651,3.068-7.927,5.48-.655.7-1.134-.09-1.54-.341-.542-.337,0-.782.255-1.1.4-.5.848-.967,1.276-1.447a1.951,1.951,0,0,1-2.254-1.844c-.769.273-1.2,1.481-2.02.88-.574-.422.653-.895.316-1.648-2.668,1.7-5.623,2.523-8.319,3.971-1.96.793-3.907,1.621-5.88,2.372-4.257,1.62-8.527,3.2-12.791,4.8-1.712.837-3.692.91-5.282,2.09a184.447,184.447,0,0,0-17.6,6.4c-.728.215-1.464.4-2.179.652a128.564,128.564,0,0,0-13.5,5.5,21.733,21.733,0,0,0-5.552,2.824c-2.836.856-3.437,3.554-4.354,5.977a.962.962,0,0,0,.084.819c1.269,1.074.345,1.831-.27,2.681-.694.961-1.336,1.964-2,2.95-.86-.617.119-1.438-.2-2.166-.161.061-.383.072-.429.173a120.416,120.416,0,0,0-5.536,13.1c-.561.422-.465,1.214-.938,1.743-1.436,1.609-1.782,3.778-2.436,5.784a2.222,2.222,0,0,0-.691,1.661,8,8,0,0,1-1.431,4.479,31.123,31.123,0,0,0-3.112,6.421,4.29,4.29,0,0,0-.7,1.759,11.368,11.368,0,0,0-1.913,3.785,12.161,12.161,0,0,0-1.968,4.512,56.533,56.533,0,0,1-3.692,7.975,26.174,26.174,0,0,0-2.605,5.5,24.344,24.344,0,0,0-2.653,5.042c-1.278,2.848-2.864,5.125-6.278,4.818a3.728,3.728,0,0,0-1.092.24,28.915,28.915,0,0,1-7.777.285c-1.568-.208-3.044-.194-3.876,1.637a1.974,1.974,0,0,1-.85.766c-3.283,1.844-4.179,3.785-3.367,7.483.074.338.236.965.649.877,1.228-.26,2.3,1,3.569.3.42-.231.773.186,1.1.525a5.748,5.748,0,0,0,5.058,1.8c.508-.064,1.074-.146,1.308.373.2.455-.316.783-.542,1.162-.26.434-.447.915-.665,1.376l-1.995,3.127h0a1.034,1.034,0,0,0-.41.8l-2.081,3.6a16.411,16.411,0,0,0-2.227,3.643c-3.1,4.334-5.059,9.345-7.682,14.055.624.182,1.064-.487,1.36-.017s-.226.809-.447,1.171c-.266.434-.638.8-.872,1.25-1.221,2.348-3.527,3.685-4.817,6.011-4.04,7.285-7.785,14.774-12.864,21.366a10.462,10.462,0,0,0-2.289,4.263c1.48-1.068,2.99-1.517,3.675-3.1a3.7,3.7,0,0,1,3.337-2.185,3.882,3.882,0,0,1-1.368,2.421c-.9,1.019-1.755,2.425-.823,3.473.559.629.95.9.665,1.7a8.957,8.957,0,0,1-.64,1.2,2.772,2.772,0,0,0-1.334,2.158c-.005.071.143.233.191.221.85-.215,1.2-1.014,1.7-1.653a.45.45,0,0,0,.04-.163c1.218.09,2.381.672,3.654-.3a1.975,1.975,0,0,1,2.557.279c.612.827-.688,1.241-.759,2.006-.008.1.078.2.17.428,1.224-1.973,3.636-2.163,4.951-4.009.383-.538,1.146-.419,1.8-.075a19.541,19.541,0,0,0,7.173,2.018h0a4.711,4.711,0,0,0,2.308.4l1,.133c.59.577,1.288.3,1.953.277a2.722,2.722,0,0,0,1.637.295,58.984,58.984,0,0,0,7.457.337c1.551-.111,3.138.744,4.641-.178a7.361,7.361,0,0,0,3.264-.062c3.709.49,7.268-.884,10.926-1.032.183-.007,1.16.312.677-.5-.5-.847-.042-.746.448-.948,2.694-1.11,5.573-1.353,8.364-1.986,2.345-.533,4.425-1.856,6.786-2.265a2.668,2.668,0,0,1-.1-.717,2.668,2.668,0,0,0,.1.717,3.214,3.214,0,0,1,1.481-.867c2.24-.58,4.595-.778,6.656-2.026,3-.322,5.652-1.767,8.715-2.779-1.01-.5-1.777-1.23-.816-1.741a18.827,18.827,0,0,1,2.281-1.357c1.729-.633,3.411-1.409,5.122-2.1.4-.16.756-.406.679-.838-.214-1.191.7-1.451,1.32-1.965.053-.637-.05-1.353.725-1.627l.608-.116c1.464-1.111,2.76-2.487,4.16-2.94-.031.036-.432-.246-.8-.142s-.982.332-1.085.186c-1.082-1.539-2.213-1.318-3.5-.324-.248.191-.346-.321-.435-.575-.024-.779.435-1.081,1.06-1.269a3.914,3.914,0,0,0,1.921-1.2c2.048.082,3.524-1.252,5.109-2.334-1.652.854-3.647.738-5.113,2.088-.241-.072-.579-.009-.634-.379-.136-.915.89-1.088,1.123-1.737-.435-.565-.951-.354-1.409-.409-.8-1.526.457-2.033,1.229-2.779.931.178,1.173-.886,1.856-1.155-1.308-.864.224-1.478.384-2.6l-2.572,1.672a2.736,2.736,0,0,0-1.431.762c-.3.292-.721.594-.985.224-.927-1.3-2.016-.688-3.091-.423-.522.127-1.112.4-1.316-.439-.4-1.633-1.19-1.481-2.115-.528a2,2,0,0,1-1.181.474,27.994,27.994,0,0,0-5.549,1.957c-4.1.941-8.084,2.36-12.117,3.572l-10.481,2.727a45.569,45.569,0,0,0-6.854,1.4,6.065,6.065,0,0,1-1.356.355c-2.7.068-5.372.611-8.089.458a3.1,3.1,0,0,0-2.954,1.035h-1.034a1.732,1.732,0,0,0-1.624-.269c-.66-.292-1.029.431-1.583.507-.151-1.61,1.41-2.366,1.671-3.769a.589.589,0,0,0,.3-.705c.326-.59,1.134-.821,1.108-1.672.248-.812,1.453-.542,1.54-1.49a4.776,4.776,0,0,1,1.246-2.35,3.308,3.308,0,0,0,1.485-1.289c1.469-1.9,2.912-3.828,4.365-5.745.661-.227.839-.973,1.274-1.438,1.254-1.341,2.3-2.9,3.435-4.366l.183-.757c.386-.188.886-.272,1.141-.582a30.453,30.453,0,0,0,3.908-5.612,17,17,0,0,0,1.785-3.031,20.349,20.349,0,0,1,2.387-4.221,49.172,49.172,0,0,0,8.809-2.083c4.372-.666,8.238-2.869,12.284-4.532.752-.309.408-.922.51-1.419,2.229-1.438,4.806-2.176,6.913-3.875a19.257,19.257,0,0,0-7.318,3.44c-1.435.611-2.866,1.236-4.31,1.824-.406.166-.94.223-1.108-.3-.191-.59.429-.5.722-.679,2.2-1.321,4.352-2.721,6.6-3.944a69.547,69.547,0,0,0,10.381-6.947,1.038,1.038,0,0,0,.176-.286,3.149,3.149,0,0,0,1.619-1.091l5.939-3.6c-.422-.6-.728-1.155-1.359-.53-.4.393-.943.244-1.375.474-.462.247-.848.234-1.1-.282-.3-.6.206-.734.533-1.025,1.292-1.143,2.99-1.5,4.319-2.561.823.194,1.236-.552,1.879-.9C632.634,173.6,631.816,172.742,632.435,172.524ZM432.8,269.227c-1.938-1.564-3.534-3.564-5.642-4.9a13.115,13.115,0,0,0-2.6-2.418l-6.239-6.226a8.465,8.465,0,0,0-.933-1.806c-2.253-2.565-4.562-5.074-6.852-7.6-.827-1.942-2.525-3.146-3.649-4.837l-1.431-2.057q-1.1-1.734-2.2-3.47c-.034-.837-.861-1.532-.386-2.458a5.785,5.785,0,0,1,1.522-1.088c1.356-.519,2.916-.962,3.491-2.7-.964-.867-.511-1.713.075-2.506.42-.565.921-1.064,1.386-1.591a28.062,28.062,0,0,0,4.124-5.249c.664-1.14,1-2.705,1.981-3.383,2.484-1.72,3.779-4.467,5.407-6.827,1.011-1.464,2.14-3,3.128-4.5,1.052-1.6,1.772-3.638,3.461-4.812a1.378,1.378,0,0,0,.416-1.562c1.105-.338,1.235-1.445,1.639-2.335a4.945,4.945,0,0,1,2.13-2.544,5.888,5.888,0,0,0,2.389-2.817c.88-1.571,1.66-3.2,2.5-4.8.23-.435.4-1.263,1.078-.386.619.8.655.788,1.047-.158a5.416,5.416,0,0,1,.537-1.234c2.214-2.9,3.322-6.394,4.737-9.725.891-2.058,1.792-4.112,2.67-6.177.346-.811.754-1.686-.605-1.906-.56-.09-.335-.5-.239-.772a8.755,8.755,0,0,1,.925-2.555,3.086,3.086,0,0,0,.189-3.22c-.237.457-.384.681-.477.929-1.545,4.158-2.747,8.48-5.279,12.163a2.669,2.669,0,0,0-.519,2.2.84.84,0,0,0-.117.8c-.4.169-.467.546-.505.939-.166.22-.338.435-.5.66-.338.481-.309,1.332-1.085,1.367-1,.043.255-1.244-.853-1.325.09,1.942-1.72,2.679-2.412,4.205-.17.376-.473.786-.872.575-.444-.236-.179-.717-.015-1.058.439-.912.913-1.805,1.374-2.705a41.881,41.881,0,0,0,3.066-6.563,1.147,1.147,0,0,0,.358-.854,18.238,18.238,0,0,0,2.447-5.762c.7-1.913,1.753-3.681,2.077-5.745.766-2.252,2.011-4.33,1.454-6.974-.194-.922-1.184-1.662-.773-2.574a41.4,41.4,0,0,0,2.27-7.985c1-4.4,2-8.817,2.72-13.277a29.8,29.8,0,0,1,1.641-6.957,16.3,16.3,0,0,0,1.631-6.145,21.427,21.427,0,0,1,.229-2.58c.845-5.469,2.609-10.745,3.014-16.309a2.981,2.981,0,0,1,.918-2.285,1.926,1.926,0,0,0,.495-2.071c-.452-1.325.884-1.675,1.284-2.531.27-.58.508.636,1.022.678.263.022.337.1.591-.192a2.212,2.212,0,0,0,.446-2.593c-.2-.493-.985-.776-.613-1.451.29-.527,1,.1,1.484-.478-.987-.934-2.339-1.493-2.333-3.256.007-2.33-.988-4.482-1.332-6.761-.069-.46-.019-.96-.759-.619C455.477,76.748,455,76,455.02,74.5a18.306,18.306,0,0,0-.3-2.035c-.148-1.424-1.079-.581-1.686-.681-.018.983-1.16,1.474-1.116,2.308.068,1.325-.668,1.094-1.341,1.048a5.584,5.584,0,0,0-3.587.658c-1.318.812-3.735.455-5.838-.4-.136-.055-.372.127-.546.228-1.748,1.022-3.483,2.07-5.248,3.058-.373.21-.939.668-1.269.09-.442-.776-.991-.228-1.648-.434,1.221,1.019.857,1.62-.244,1.9-.984.254-1.758,1.753-2.734,1.1-1.714-1.14-3.095-.094-4.366.555-1.878.958-3.468,2.533-5.305,3.606-1.612.939-2.716,2.572-4.41,3.349-1.305-.055-1.793.637-1.748,1.983.029.884-.132,1.75-1.334,1.1-.164-.088-.541-.1-.582-.017-.557,1.134-2.011.893-2.605,1.942a2.038,2.038,0,0,0-1.368,1.88c-.016.4-.125.778-.522.681-1.46-.354-1.375.809-1.642,1.711.473.189.872-.59,1.188-.113s-.181.825-.452,1.155c-1.293,1.564-2.626,3.09-3.891,4.678-1.3,1.63-3.009,2.968-3.84,4.917-.98,2.3-3.37,3.506-3.752,6.373-.17,1.276-2.062,2.21-2.443,3.915-.222,1-1.438,1.418-1.63,2.525-2.315,3.213-4.163,6.781-6.679,9.839a20.349,20.349,0,0,0-2.734,3.883c-2.4,2.742-4.079,6-5.978,9.112,1.288-1.291,2.388-2.746,3.625-4.054.976-1.03,1.325-2.526,2.437-3.422.62-.705,1.237-1.413,1.863-2.113.241-.269.469-.764.886-.379.282.262.031.653-.131.928-.68,1.147-1.568,2.191-1.523,3.675-1.112,2.412-2.228,4.821-3.33,7.236a2.45,2.45,0,0,1-1.116,1.158c-2.18,1.257-2.158,1.289-1.2,3.756a1.449,1.449,0,0,1,.051.652c-.06.559-.007.882.681.728,1.331-.3,1.027.487.477,1.048-2.052,2.09-3.107,4.931-4.921,7.188-.429.533-.752,1.184-.2,1.637.473.39.831-.345,1.142-.691a11.512,11.512,0,0,1,2.845-2.7c.413-.251.51-.087.406.344-.04,1.325-1.349,2.062-1.44,3.655a172.082,172.082,0,0,0,14.6-18.384l.988-.347c.228.591.5.4.784.052a66.954,66.954,0,0,0,5.811-7.31,41,41,0,0,0,5.045-6.19,32.794,32.794,0,0,0,4.11-5.142c.76-.747,1.766-1.272,2-2.492h0c1.658-1.487,2.885-3.406,4.4-5.05,1.68-1.822,3.012-4,4.881-5.717,1.434-1.317,3.152-2.265,4.38-3.837,2.126-1.484,4.279-2.927,6.372-4.461,3.758-2.755,7.479-5.568,11.222-8.343.342-.254.707-.7,1.158-.46.575.3.281.938.237,1.4-.245,2.526-.529,5.048-.829,7.568-.516,4.343-1.675,8.556-2.371,12.862a2.465,2.465,0,0,0-.375,1.455,5.66,5.66,0,0,0-.673,2.09c-.766,1.162-.5,2.526-.662,3.807l-.132.3c-1.416,4.1-2.807,8.209-4.259,12.293-.7,1.971-1.836,3.836-2.182,5.862a16.787,16.787,0,0,1-1.43,4.7c-1.175,2.392-2.479,4.724-3.482,7.194-.931,2.294-2.9,3.967-2.825,6.954.046,1.786-1.547,3.58-2.25,5.435-1.22,3.217-3.087,6.1-4.177,9.382a7.8,7.8,0,0,1-.6,1.416c-4.622,8.069-9.021,16.293-14.619,23.684a79.267,79.267,0,0,1-6.969,8c-.382.384-.863,1.382-1.424.114.162-1.389-1.071-2.422-.861-3.824l-.57-1.746a10.545,10.545,0,0,0-2.674-6.226c-.425-1.223-1.864-1.526-2.246-2.788a9.229,9.229,0,0,0-3.98-5.535c-1.315-1.887-2.705-3.721-3.921-5.677a2.126,2.126,0,0,0-3.228-.7c-.793.541-2.28,1.107-1.816,2.815.113.418.181.961-.331,1.213-.632.311-.59-.65-1.254-.785.178,1.895-1.079,3.286-1.094,5.13-.03,3.385.54,6.706.691,10.066.388,8.57.728,17.147,1.758,25.667a1.907,1.907,0,0,1-.846,2.163c-1.725,1.082-3.45,2.166-5.154,3.286a25.073,25.073,0,0,1-12.322,4.048c-1.729.117-2.769-.58-3.48-2.372A41.631,41.631,0,0,1,348.62,221c-.378-8.371.429-16.676,1.236-24.98l.3-2.448.091-1.022c-.268-.973.672-1.791.317-2.776l.105-.669c.555-2.461,1.7-4.749,1.9-7.316,1.047-3.535,1.886-7.125,2.592-10.752a22.444,22.444,0,0,1,.829-3.948c2.024-5.035,3.235-10.355,4.988-15.481,1.9-6.181,4.192-12.2,6.519-18.211,1.647-4.253,3.078-8.61,4.895-12.78,2.629-6.034,5.306-12.047,8.454-17.813,2.48-4.542,3.934-9.59,6.045-14.319q1.662-3.982,3.322-7.964a18.209,18.209,0,0,0,.955-2.639,24.328,24.328,0,0,0,.308-8.563c-.413-2.828-2.524-4.714-5.207-4.33a8.473,8.473,0,0,0-3.858,1.611,65.89,65.89,0,0,0-9.978,9.927c-2.761,3.233-5.339,6.644-7.966,10a150.188,150.188,0,0,0-12.558,18.928,37.867,37.867,0,0,0-3.224,5.589A86.482,86.482,0,0,0,344,120.373a2.713,2.713,0,0,0,.83.327,2.713,2.713,0,0,1-.83-.327,13.384,13.384,0,0,0-1.923,3.824c-.6,1.176-1.563,2.119-1.95,3.429a37.925,37.925,0,0,0-3.594,8.717,95.186,95.186,0,0,0-4.028,11.073c-.361.925-1.068,1.87-1.023,2.772.191,3.782-1.63,7-2.393,10.5-.681,3.13-1.958,6.1-2.3,9.324a2.452,2.452,0,0,0-.62,1.542c-.819,4.075-1.483,8.181-1.958,12.32a8.475,8.475,0,0,0-.448,3.133q-.09.685-.178,1.37a54.237,54.237,0,0,0-1.16,16.676,14.267,14.267,0,0,0,.627-6.635c-.1-1-.314-2.129,1.081-2.406-.016,1.051-.44,2.113.082,3.149l.053.682a12.128,12.128,0,0,0-.073,3.8l-.038.692a116.323,116.323,0,0,0-.076,14.927q.006,1.034.011,2.067a2.3,2.3,0,0,0-.046,1.5,50.645,50.645,0,0,1,.345,6.651,28.478,28.478,0,0,0,1.4,8.151c.3,1.559.632,3.114.906,4.681.323,1.841.364,3.8,2.014,5.039a18.8,18.8,0,0,0,3.3,6.227c.207.02.414.042.621.059-.207-.017-.414-.039-.621-.059.47.54.709,1.259,1.3,1.72,1.634,1.272,2.558,3.542,4.861,3.872,1.795,2.788,4.468,4.395,7.153,5.989,1.013.6,2,1.191,2.791-.373a1.027,1.027,0,0,1,.935-.574c2.54.15,5.167-.266,7.6.152,2.815.481,5.12-.309,7.526-1.374a25.348,25.348,0,0,0,9.663-4.182,4.092,4.092,0,0,0,2.311-1.35c1.548-.263,2.72-1.315,4.017-2.119,1.022-.634,1.9-1,2.878.432a74.843,74.843,0,0,0,12.916,14.784c.218.189.477.765.717.457.838-1.072,1.24.025,1.679.364,4.947,3.833,10.024,7.414,15.8,9.722h0c2.28,2.337,5.26,1.711,7.992,2.074a5.646,5.646,0,0,0,3.027-.156,3.464,3.464,0,0,1-2.422-2.32c.249-.111.59-.147.721-.342.455-.676,2.159-.535,1.209-2.218-.233-.413.571-.5.921-.2,1.468,1.24,3.43,1.314,4.96,2.408.346.249,1-.146.639-.387-1.237-.834-.536-3.555-2.926-3.231-.645.087-1.2-.773-1.094-1.444s.826-.176,1.266-.246c.781-.123,1.965,1.442,2.291-.634.01-.064.4-.111.6-.082a45.743,45.743,0,0,1,10.293,2.208,10.328,10.328,0,0,0,3.935.939,7.376,7.376,0,0,0-1.312-.994C440.492,273.967,436.365,272.1,432.8,269.227ZM878.911,92.014c-.023,1.791.875,2.411,2.473,1.77.192-.077.44-.306.575-.053.559,1.051.672.233.98-.2.5-.7.979-1.614,2.039-.871,1.029.721,2.1,1.022,3.076.016a2.291,2.291,0,0,1,2.036-.762c1.479.14,1.481-.65.978-1.786-.392-.884-1.375-1.439-1.4-2.483-.026-1.153-.476-1.71-1.539-1.744-.488-.016-1-.233-.861-.76.27-1.02-.542-1.984-.082-3.156a14.337,14.337,0,0,1-7.537,4.409,1.963,1.963,0,0,0-1.088,2.554A10.659,10.659,0,0,1,878.911,92.014Zm-641.258,141.1a17.6,17.6,0,0,0-4.312-.738c-3.749-.13-7.495-.312-11.244-.473a14.616,14.616,0,0,0-6.244-.233,4.463,4.463,0,0,0-.947-.205q-9.832.007-19.661.039h0c-.378-.023-.755-.062-1.132-.069-1.928-.036-2.109-.319-1.815-2.308a116.568,116.568,0,0,0,1.691-16.854,7.706,7.706,0,0,1,.23-1.332q.286-2.619.571-5.237h0a6.93,6.93,0,0,0,.053-2.424,88.812,88.812,0,0,0,.968-9.371,97.678,97.678,0,0,0,.8-15.264q.127-8.134.251-16.27a4.168,4.168,0,0,1-1.319-1.142,4.168,4.168,0,0,0,1.319,1.142q.063-5.768.128-11.538a127.886,127.886,0,0,0,.427-14.069l-.195-3.19a46.811,46.811,0,0,1,.531-8.343,31.24,31.24,0,0,0,.425-5.525c-.1-1.293.514-2.526.3-3.83a76.2,76.2,0,0,0-.9-13.2c-.357-2.019-.778-4.155-2.567-5.568a2.975,2.975,0,0,0-3.788-.078c-1.166.78-2.283,2.127-1.676,3.594,1,2.412.677,4.847.778,7.29a16.041,16.041,0,0,0-.6,3.895,51.328,51.328,0,0,1-.706,7.34c-.459,2.255-.6,4.535-.95,6.791q-.315,2.946-.632,5.892-.129.878-.26,1.757c-.185,1.887-.06,3.892-.638,5.632-.687,2.071-.533,4.2-.995,6.256-.074.324-.053.773.27.938.972.5.646,1.358.537,2.106a12.587,12.587,0,0,0-.2,2.75q-.145,2.241-.289,4.483a72.556,72.556,0,0,0-.918,9.752l.277-.01-.277.01c-.134.961-.266,1.922-.4,2.882-.053.367.056.906-.542.824-.563-.079-.338-.608-.4-.967a185.832,185.832,0,0,0,1.8-19.947,34.121,34.121,0,0,0-1.051,6.424,113.076,113.076,0,0,0-1.126,13.557c-.117.845-.352,1.658-.41,2.529-.21,3.081-.527,6.154-.8,9.229q-.762,8.532-1.536,17.062c-.031.347-.215.749.268.77.377.016.462-.392.486-.754.121-1.83.424-3.64.368-5.489a16.862,16.862,0,0,1,.613-4.4c.12-.513.305-.759.737-.264.258,3.493-.634,6.944-.338,10.439q-.074,1.9-.148,3.8a.816.816,0,0,0,0,1.058q0,1.03.007,2.058c-.192,3.613-.391,7.227-.576,10.842a173.85,173.85,0,0,1-1.555,17.344,3.574,3.574,0,0,1-1.577,2.846c-.69.413-.886.98-.226,1.663a2.512,2.512,0,0,1,.583,2.528,24.128,24.128,0,0,1-.443,2.883.862.862,0,0,0,.219.947c.27.238.517,0,.715-.179,1.35-1.218,1.992-.588,2.34.964a12.549,12.549,0,0,0,.608,1.957c.157.384.218.949.819.922.446-.02.6-.377.824-.717.98-1.473,1.01-3.272,1.42-4.909.35-1.4.815-1.457,1.864-1.022a21.046,21.046,0,0,0,10.058,1.283,23.276,23.276,0,0,0,3.091.053,44.348,44.348,0,0,1,9.793-.257,25.632,25.632,0,0,0,7.754-.1h0a14.63,14.63,0,0,0,4.242-.275c3.475.312,6.774.223,8.29-4.022a.719.719,0,0,1,.77-.53c2.409.406,4.046-1.843,6.279-2.039.319-.027.686-.178.668-.6C238.4,233.437,238.027,233.226,237.653,233.118ZM856.087,105.13c-1.078-1.689-2.5-.778-3.774-.934a2.9,2.9,0,0,0-1.623.293l-1,.132-8.487.77a13.317,13.317,0,0,0-3.92-.179l-10.124.356H824.5l-.613.007-.694,0c-3.842-.215-7.69.052-11.536-.34-4.389-.448-8.776.436-13.18.289-2.766-.092-5.539.048-8.308.084a5.065,5.065,0,0,0,0,.762,5.065,5.065,0,0,1,0-.762,89.33,89.33,0,0,0-9.594-.439c-3.251.04-6.522.379-9.752-.4a1.625,1.625,0,0,0-2.007.786c-.741,2.25-2.685,3.122-4.173,4.519a1.855,1.855,0,0,0-.371.565c-.48,1.028-.255,1.7.9,1.726a7.818,7.818,0,0,0,2.751-.192c.565.126,1.4.048,1.647.413.869,1.3,2.071,1.1,3.262,1.159,2.626.134,5.242.173,7.877.491,2.687.325,5.134,1.554,7.8,1.736.3,1.317-1.151.861-1.461,1.6a10.413,10.413,0,0,0,6.379-.027c1.481-.559,3.006-.458,4.466-.91a.961.961,0,0,1,1.27.468c.125.254.434.5.66.211,1.495-1.9,3.472-.876,5.255-1.019,1.366-.108,1.9.652,1.867,2.009h0q.066,2.278.129,4.555c-.576,5.891-.014,11.809-.41,17.712-.255,3.768.046,7.576-.174,11.348-.5,8.571-.208,17.154-.534,25.726a12.678,12.678,0,0,1,1.479.434,12.7,12.7,0,0,0-1.48-.434q0,1.207,0,2.413c-.284.785.47,1.145.636,1.746-.665,2.042-.4,4.149-.39,6.239q0,.869.011,1.736c-.754,3.909-.335,7.856-.353,11.79a.9.9,0,0,0,0,1.043,14.963,14.963,0,0,0-.087,3.113,10.24,10.24,0,0,0-.238,2.781q-.064.681-.13,1.361-.061.54-.124,1.08c-.078.86-.195,1.718-.227,2.58-.056,1.53-.506,3.221.623,4.463,1.21,1.331.827,2.88.81,4.351a20.952,20.952,0,0,1-.612,3.507,10.006,10.006,0,0,0,.131,2.747c.258,1.637.737,3.382.443,4.937-.5,2.63.12,5.2-.142,7.785a.543.543,0,0,0,.034.338c1.246,1.468.736,3.35,1.07,5.029.1.481-.109,1.228.519,1.315,1.172.159.677,1.231,1.042,1.913.778-.776,1.567-.981,2.405.254.124-1.993-.2-3.932.74-5.2a12.228,12.228,0,0,0,2.01-5.447c.063-.337.229-1.121.43-.964,1.4,1.09.3-.681.71-.658,0-.866.01-1.731.007-2.6a109.2,109.2,0,0,1,.636-15.014q.3-.661.611-1.322h0a4,4,0,0,0,.489-2.788c.745-.162,1.41-.415,1.424-1.408a10.392,10.392,0,0,0,.368-2.8q.064-.685.127-1.369a9.236,9.236,0,0,0,.263-1.346c.221-4.415.174-8.845.7-13.242a32.492,32.492,0,0,0,.7-6.579l.033-.684a1.961,1.961,0,0,0,.17-1.383c.5-5.318-.119-10.668.382-15.987a42.372,42.372,0,0,0,.38-6.917h0a31.248,31.248,0,0,0-.306-7.982,15.929,15.929,0,0,0,.17-3.435,2.4,2.4,0,0,0,0-1.46,15.955,15.955,0,0,0-.1-4.434.771.771,0,0,0,.008-.785q-.051-1.706-.1-3.409a2.624,2.624,0,0,0-.2-1.766q-.233-4.626-.464-9.254a35.1,35.1,0,0,0-.864-7.411q-.086-1.025-.173-2.052l0-1.035c.076-.824.684-.743,1.213-.808.305-.038.807.048.79-.384-.049-1.328.826-.906,1.443-.918,1.459-.025,2.92-.007,4.381-.007a13.881,13.881,0,0,0-3.082-.249c-.367,0-.733.053-.987-.4-.582-1.045-.264-1.705,1.051-1.627,4.88.289,9.694-.7,14.555-.718-.023-.166-.015-.37-.025-.551.01.181,0,.384.025.551l10.039-.24c-.4-1.136-.9-1.395-1.753-1.077a7.917,7.917,0,0,1-3.382.152c-.267-.017-.574,0-.56-.421.014-.393.358-.358.59-.465,2.886-.223,5.736-.782,8.617-1.085a11.816,11.816,0,0,0,3.984-.627,16.974,16.974,0,0,1,8.3-2,1.358,1.358,0,0,0,.931-.172c1.2-1.191,2.713-1.007,4.146-1.156a20.982,20.982,0,0,1,2.175-.013c-2.972-.312-5.92-.843-8.886-.227a24.222,24.222,0,0,1-10.392-.555l.915-.553c1.484-.6,3.152.071,4.6-.753q.164-.958.324-1.918C857.7,105.207,856.356,105.554,856.087,105.13ZM314.97,180.056c.059,1.491.506,3.081-.947,4.188a6.867,6.867,0,0,1-.371,3.1,16.3,16.3,0,0,1-.835,4.8c-.79,2.736-.621,5.619-1.211,8.391-.249,1.174-.636,2.294-.9,3.454a53.6,53.6,0,0,1-3.077,10.77,5.87,5.87,0,0,1-.917,3.753c-2.009,3.395-3.276,7.175-5.178,10.6a2.759,2.759,0,0,1-3.189,1.259l-.079.678a.406.406,0,0,1-.237.49c.007,1.094-.921,1.184-1.536,1.61.03,1.87-1.162,2.916-2.368,3.953-1.439,1.347-2.118,3.613-4.328,4.026l-2.289,1.061h0a2.31,2.31,0,0,1-1.325.613.245.245,0,0,1-.215.136c-.98,1.017-1.879,2.161-3.359,2.383h0a.915.915,0,0,1-.729.954c-2.527,2.4-5.545,3.776-9.034,5.253.563-1.792,1.921-2.379,2.092-3.87.093-.818.052-1.273-.5-1.736-1.4-1.179-3.019-.449-4.527-.512-.624-.026-1.391.564-.669,1.561.173.24.594.39.319.954a5.816,5.816,0,0,1-2.319-1.976c-1.314-.408-2.423.355-3.6.712.5,1.866,2.123,2.77,3.181,4.159.282.371.794.545.977,1.528a11.58,11.58,0,0,1-4.825-4.646c-1.093-.539-2.573-.607-2.621-2.419a1.838,1.838,0,0,1-.969-1.4,1.466,1.466,0,0,1-.606-1.061,2.051,2.051,0,0,1-1.029-1.366c-1.262-1.516-2.569-3.007-2.516-5.234h0c-.8-.026-.965-.79-1.323-1.315-.294-.431-.333-1.129-1.063-1.065l-.286.358a10.834,10.834,0,0,0,1.96,4.09c.343.454,1.023,1.2.364,1.753-.849.718-1.3-.108-1.727-.838-.818-1.409-2.025-2.567-2.423-4.247-.567-1.395-2.272-2.085-2.15-3.9a3.915,3.915,0,0,1-1.01-3.022,14.272,14.272,0,0,1-1.927-6l.008-1.739c-1.558-2.364.305-4.873-.271-7.3a18.908,18.908,0,0,1-.259-2.74q-.382-2.441-.762-4.88c-.668-1.906-.085-3.977-.688-5.891a52.075,52.075,0,0,1,.717-11.116,7.764,7.764,0,0,1,.326-3.791,45.4,45.4,0,0,1,1.214-12.508,11.2,11.2,0,0,0,1.3-6.368,2.607,2.607,0,0,1,.3-.944,1.847,1.847,0,0,0,.255-1.767,1.119,1.119,0,0,1,.437-1.447q.354,1.444.7,2.889a2.38,2.38,0,0,1-.668.3,2.38,2.38,0,0,0,.668-.3h0q-.352-1.444-.7-2.89c.252-.327.511-.817.3-1.1-.914-1.246.327-2.645-.319-3.877-.023-.045.02-.127,0-.171-.549-1.019,2.747-1.188.516-2.822-.4-.289.025-2.447.729-3.639.482-.817-.11-1.421-1.117-1.779,2.082-.556,1.69-2.333,2.131-3.588.177-.506.019-1.147.42-1.617a39.851,39.851,0,0,1,1.577-7.992c.609-1.911.615-4.057,1.946-5.69a97.99,97.99,0,0,1,5.946-11.806c.923-1.47,1.03-3.364,2.213-4.724a11.588,11.588,0,0,1,1.419-1.632c.838-.974.978-2.633,2.533-2.9.541-1.117.8-2.444,2.014-3.065l1.968-2.077a13.226,13.226,0,0,0,1.976-2.207c.222-.27.557-.526.3-.856-1.013-1.289-.106-1.752.781-2.318a1.789,1.789,0,0,0,.655-.955c.4-1.4,1.145-1.539,2.2-.767a12.986,12.986,0,0,1,7.5,3.454,12.13,12.13,0,0,1,3.311,2.883c3.371,2.639,6.532,5.55,9.72,8.425a23.439,23.439,0,0,1,5.177,5.909,2.75,2.75,0,0,1,.876,1.173,5.633,5.633,0,0,1,1.525,2.6q.689,1.68,1.376,3.36a3.159,3.159,0,0,1,.656,2.126,3.966,3.966,0,0,1,.921,2.558,5.807,5.807,0,0,1-1.21-2.255h0a1.592,1.592,0,0,1-.88-1.53c-.4-.12-.7-.928-1.017-.577-.591.66-.05,1.452.169,2.174a.63.63,0,0,1,.333.75c.072.316.146.634.218.952a51.7,51.7,0,0,1,2.133,5.925l.51,1.45q.364,1.034.726,2.068-.025,1.041-.048,2.083c.23.324.828.408.6,1.032a31.024,31.024,0,0,1,2.3,9.028l-1.521,0a2.662,2.662,0,0,1-.488,1.173,2.662,2.662,0,0,0,.488-1.173l1.521,0c-.089.7.627,1.051.64,1.7a8.125,8.125,0,0,1,.687,3.181c.53,1.74,1.357,3.3.713,5.38a5.337,5.337,0,0,0,1.161,4.649c.129,1.045.655,2.025.455,3.123a3.918,3.918,0,0,1-.541,2.463.745.745,0,0,1-.466-.22.745.745,0,0,0,.466.22l-.05,1.328a.6.6,0,0,1,.074.684,14.3,14.3,0,0,1,.187,4.19l.026.351c.473,1.116.011,2.33.327,3.461Zm-13.61-19.042a7.751,7.751,0,0,1-.014-2.484c.082-3.257-.541-6.457-.736-9.691-.358-2.633-1.615-4.993-2.051-7.6-.6-1.48-.135-3.019-.226-4.526l-1.611-4.872a2.953,2.953,0,0,0,.354.311,2.953,2.953,0,0,1-.354-.311c-.087-.215-.176-.432-.264-.647h0a2.947,2.947,0,0,1-.617-1.908c.146-1.859-.805-3.3-1.5-4.812-.6-1.3-1.257-2.841-2.318-3.557-1.5-1.009-2.336-2.623-3.757-3.691-1.081-.812-2.021-1.974-3.076-2.924h0c-1.172-.436-1.221-2.007-2.435-2.533a5.893,5.893,0,0,0-4.4-.027c-1.378.462-1.661,2.016-2.516,2.994a10.92,10.92,0,0,0-2.387,4.771,21.175,21.175,0,0,1-3.336,7.133,9.87,9.87,0,0,1-.8,3.8h0q-.28.7-.559,1.4a1.175,1.175,0,0,1-.537,1.091c-.005-.119-.014-.24-.014-.356,0,.116.008.237.014.356l-.316.39c-.018-.025-.034-.056-.05-.082.016.026.033.058.05.082-1.229,4.051-1.509,8.332-2.653,12.4-.676,2.624-.368,5.421-1.24,8.011a6.89,6.89,0,0,1-1.213-.757,6.981,6.981,0,0,0,1.213.759,63.3,63.3,0,0,0-2.182,12.07c.142.507.274,1.013-.211,1.415a1.928,1.928,0,0,1-.237-.4,1.885,1.885,0,0,0,.237.4q-.151,1.043-.3,2.084a23.33,23.33,0,0,1-1.037,4.883,3.083,3.083,0,0,0-.681-.354,3.083,3.083,0,0,1,.681.354q-.55,3.278-1.1,6.555h0c-.065,3.7-.118,7.4-.2,11.095-.059,2.684.256,5.389-.409,8.038.023,2.872.328,5.737.1,8.612l.147.936c.03.345.059.689.089,1.035a2.789,2.789,0,0,1-.4.354,2.712,2.712,0,0,0,.4-.356,2.647,2.647,0,0,1,.188,1.512,1.084,1.084,0,0,1,.177,1.065,5.176,5.176,0,0,0-.619,0,5.176,5.176,0,0,1,.619,0c.7,3.412.57,7.012,1.871,10.277,2.054,5.148,4.963,9.807,7.635,14.6.489.877.914.916,1.675.367,1.827-1.321,3.708-2.558,5.568-3.828q.511-.483,1.025-.965a3.019,3.019,0,0,1,1.284-1.078,3.65,3.65,0,0,1,1.781-1.379c2.682-3.111,5.62-5.974,8.047-9.333a62.284,62.284,0,0,0,6.033-13.276,12.982,12.982,0,0,1,.8-1.659c.127-.553.228-1.117.386-1.66a71.026,71.026,0,0,0,2.272-7.862c1.154-6.756,2.706-13.452,3.115-20.338h0l.323-5.493.011-.679a20.577,20.577,0,0,1,.163-4.2q.041-1.2.082-2.395c.005-.366.01-.73.014-1.1Zm573.431-58.195q-5.517.941-11.031,1.909l-5.214.486q-.161.958-.324,1.918c1.871-.168,3.8.032,5.523-1.039a13.337,13.337,0,0,1,3.621-.967c2.5-.449,5-.947,7.5-1.431.35-.068.879-.035.766-.616C875.554,102.665,875.1,102.767,874.792,102.819Zm18.375,50.889c-.722,1.932.223,3.58-.294,5.177-.7-.256-.849-.762-.9-1.549-.306-4.385.453-8.719.453-13.086a14.948,14.948,0,0,0-.2-4.47,23.014,23.014,0,0,1-.646-5.628c-.341-5.99-.815-11.971-2.529-17.725-.88-2.954-2.73-3.533-5.342-1.952-1.1.73-2.578,1.24-1.641,3.161l.127.663q0,1.754,0,3.507-.045,1.721-.089,3.445c0,.468.007.936.011,1.4l-.031.681a2.776,2.776,0,0,0-.048,2.13,48.062,48.062,0,0,0-.208,6.875q-.051,2.259-.1,4.516-.1,1.273-.2,2.546a.216.216,0,0,0-.033.224l-.082,1.4-.1,2.419q-.106,1.22-.211,2.439a2.534,2.534,0,0,0-.238,1.724c-.169,1.6-.433,3.2-.491,4.8-.165,4.655-.987,9.262-.893,13.935l-.1,2.107a61.017,61.017,0,0,0-1.746,12.485q-.268,7.253-.537,14.507a37.334,37.334,0,0,0,.135,8.72q-.059.687-.117,1.374.092,2.079.187,4.159h0q-.045,2.43-.087,4.863c-.647,6.441.181,12.836.108,19.26l.5.032c.294-.373.59-.747.992-1.253a15.778,15.778,0,0,0,.342,2.652c.379,1.286,1.445,2.737-.228,3.96-.13.1-.067.554-.026.832.184,1.272.394,2.541.618,3.956.788-.707.332-1.757,1.117-2.4l1.491,3.818c.015,1.851-.885,3.679.1,5.587q.329-2.814.657-5.63c.378-1.59.323-3.357,1.676-4.536.589.718.187,1.632.376,2.408.193.795-.771,2.055.3,2.224.564.09.589-1.475.707-2.343.075-.543-.214-1.5.373-1.529,1.454-.068,1.168-1.182,1.513-2.068,1.684-4.333,1.653-8.989,2.449-13.488a90.494,90.494,0,0,0,1.139-10.942c.27-5.025.384-10.057.254-15.091l-1.414-.013,1.416.013a1.868,1.868,0,0,0-.009-1.353,1.484,1.484,0,0,0-.037-1.442c.368-.908-.387-2.065.563-2.844.617-.879.195-1.806.113-2.718.057-1.137.06-2.282.188-3.411.124-1.091.4-2.094-.687-2.935a1.413,1.413,0,0,1-.055-1.876,1.65,1.65,0,0,0,.363-1.694,2.6,2.6,0,0,1,.342-1.989c1.1-1.529-.692-3.23.274-4.761.022-.033-.112-.175-.17-.269a4.068,4.068,0,0,1,.256-4.759l.224,1.21a11.893,11.893,0,0,0,.192-4.467l.067-2.4c.015-.243.03-.487.045-.73a6.892,6.892,0,0,0-1.528-2.64,6.892,6.892,0,0,1,1.528,2.64c.76-1.192.305-2.542.437-3.817A35.114,35.114,0,0,0,893.167,153.709ZM679.144,77.02a34.222,34.222,0,0,1,3.276-3.23c-2.3-.043-3.025,2.033-4.65,2.666C678.206,76.991,678.705,77.586,679.144,77.02Zm-282.57,32.235c-2.655.293-3.058,2.11-3.73,4.086C394.684,112.457,395.052,110.59,396.574,109.255Zm7.026-8.22a.492.492,0,0,0,.02-.754c-.349-.348-.623-.068-.823.189-.923,1.184-1.822,2.387-2.729,3.584l.362.34A29.313,29.313,0,0,0,403.6,101.035Zm148.162,94.919c-.4-1.085-1.15-1.678-1.676-1.526-.5.145-.789,1.107-1.194,1.744C549.975,196.644,550.712,195.823,551.763,195.953Zm-165.22-72.277a4.539,4.539,0,0,0,1.568-3.438C387.174,121.438,386.214,122.2,386.543,123.676Zm62.019,34.64c-.018-.1-.278.412-.259.426.66.477.462,1.84,1.16,1.861.62.02.666-1.153,1.059-1.766C450.248,157.033,448.869,159.98,448.562,158.316Zm-25.509-76.67a2.987,2.987,0,0,0-2.6,1.58C421.59,83.335,422.289,82.812,423.053,81.646ZM848.34,116.872h6.05v-.191h-6.05ZM398.68,106.549a1.823,1.823,0,0,0-1.642,1.84A2.905,2.905,0,0,0,398.68,106.549Zm383.211,9.775a2.563,2.563,0,0,0,2.145-.078A2.508,2.508,0,0,0,781.891,116.325Zm-382.064-11.54c-.574.429-1.312.741-1.12,1.728A1.816,1.816,0,0,0,399.827,104.785Zm-1.12,1.728-.016.01-.011.026c.011,0,.019-.007.03-.009ZM139.229,177.226c-.537.2-1-.026-1.365.506C138.437,177.975,138.822,177.907,139.229,177.226ZM443.565,74.45c-.47.042-.987-.179-1.125.575A1.281,1.281,0,0,0,443.565,74.45Zm174.922,115.32h0l-.008.01Zm.486.012c.037-.072-.018-.2-.031-.3l-.455.285C618.648,189.9,618.817,190.084,618.974,189.782ZM157.059,153.719c-.026.055.044.162.071.246l.324-.223-.17-.189C157.2,153.6,157.1,153.642,157.059,153.719Zm461.418,36.06.008-.01-.06-.049Zm437.6,102.649h-.012l0,.016Zm0,0-.016.017.127.056Zm13.4-4.679c-.715-.053-.645-1.155-1.278-.832-.662.337-.435,1.068-.3,1.525.233.8-.676,1.47.032,2.364-1.4-.75-2.416-.288-2.582,1.049a13.9,13.9,0,0,0,.556,3.666c-1.24-.7-1.266-1.705-1.266-2.752,0-.649.157-1.545-.907-1.393-.9.129-.69.809-.556,1.458a1.9,1.9,0,0,1-.062,1.513c-.963-.228-.22-2.151-1.492-1.791-.948.269.115,1.2-.225,1.811-.754-.208-.6-.986-.841-1.5-.291-.61-.488-1.454-1.235-1.438-1.079.023-.162,1.135-.585,1.6a1.932,1.932,0,0,1-1.184-1.124c-.26-.5-.579-.935-1.122-.788-.684.186-.193.882-.367,1.312-.841.061-.475.656-.451,1.129.03.6.007,1.194.007,2.2-.813-1.908-.552-3.708-1.5-5.167v5.8c-.616-.233-.585-1.058-.964-1.545a1.325,1.325,0,0,0-1.27-.6c-.476.078-.45.587-.453.983-.005.658-.23,1.207-.883,1.214-.677.009-.615-.714-.7-1.181-.487-2.714-2.12-4.979-2.686-7.638a22.123,22.123,0,0,1-.839-5.266c-.1-.444-.2-.889-.3-1.334-.037-.117-.072-.234-.108-.351a33.574,33.574,0,0,1-2.713-9.073l-.162-.681a3.313,3.313,0,0,1-.417-2.1,34.722,34.722,0,0,0-4.023-6.258c-3.811-5.38-7.634-10.752-11.522-16.07-2.148-2.94-4.458-5.745-6.651-8.647-.944-1.249-1.784-2.585-2.67-3.883a8.082,8.082,0,0,1-2.007-2.224,166.472,166.472,0,0,0-14.142-16.63,8.911,8.911,0,0,1-.723-.928,2.383,2.383,0,0,1-.943-1.085L986.624,199.53a34.4,34.4,0,0,1-4.3-4.474,2.188,2.188,0,0,1,.324-.28,2.188,2.188,0,0,0-.324.28c-1.557-.435-2.589-1.776-3.9-2.63-3.569-2.318-6.954-4.953-10.448-7.4-.995-.7-2.385-.673-3.135-1.86a1.315,1.315,0,0,0-2.223.837c-.276,1.373-1.221,2.33-1.686,3.57-.63,1.681-1.265,3.658-2.694,4.983a4.168,4.168,0,0,1-1.217,3.7c-.664.444-1.6.7-.353,1.584a.608.608,0,0,1,.162.418c-1.293,1.111-1.134,3.291-2.728,4.172a1.073,1.073,0,0,0-.286-.662,1.073,1.073,0,0,1,.286.662c-.292.568.075,1.392-.7,1.8a.594.594,0,0,0-.1,1.012c.5.429.218.728-.12.923-.867.5-.726,1.713-1.093,2.137-1.234,1.434-.9,3.82-2.729,4.76-.572.293-.612.741-.431,1.293.832,1.192-1.048,1.444-.756,2.45-1.07.347-.846,1.376-1.01,2.187-.262,1.289-.676,2.383-2.163,2.5-.213.016-.4.361-.6.555a.861.861,0,0,0,.552.915c.586.276.435.976.125,1.051-1,.244-.8,1.429-1.484,1.857-.92.835-.283,2.335-1.208,3.168-.477,1.584-.7,3.324-2.348,4.184-.1.055-.072.4-.1.611.112.1.338.262.32.3a53.046,53.046,0,0,1-4.806,9.431c-.195.282-.39.562-.586.844-.053.166-.107.332-.161.5a13.284,13.284,0,0,1-1.641,3.467,15.678,15.678,0,0,1-2.149,4.211,2.358,2.358,0,0,1-1.051.78,2.358,2.358,0,0,0,1.051-.78c-1.965,4.636-3.712,9.394-6.694,13.462l-.883,1.769a4.13,4.13,0,0,1-1.082,1.71c-2.047,3.805-5.118,6.711-7.789,9.969a7.866,7.866,0,0,1-3.325,2.119c-2.588,1.038-5.232-1.913-4.768-5.311.3-2.221.726-4.425,1.113-6.633.078-.447.379-.964-.078-1.276-1.653-1.132-.939-2.8-.507-4,1.123-3.107,2.589-6.073,3.918-9.095a5.745,5.745,0,0,1,.734-2.4,45.628,45.628,0,0,1,2.062-7.329,61.753,61.753,0,0,1,3.2-10.7A141.022,141.022,0,0,1,921,221.332c1.917-6.08,3.884-12.138,6.121-18.1,1.5-4,2.611-8.168,4.346-12.072,1.361-3.065,1.908-6.464,3.52-9.418a12.415,12.415,0,0,1,1.379-3.422,69.892,69.892,0,0,1,3.613-9.359,1.707,1.707,0,0,1,.57-1.243c.021-.382.042-.764.064-1.146a2.3,2.3,0,0,1-1.3-1.039,11.862,11.862,0,0,1-3.592-2.814,6.487,6.487,0,0,1-2.409-2c-2.708-1.646-4.6-4.344-7.149-6.2q.047-.581.093-1.163a2.7,2.7,0,0,1,.812-1.211,2.7,2.7,0,0,0-.812,1.211q-.045.583-.093,1.163c-1.21-1.059-3.112-.847-4.021-2.461-1.4-.5-1.894-2.2-3.237-2.773a4.133,4.133,0,0,1-2.16-1.072,1.808,1.808,0,0,1-1.3-.763l-1.641-1.03a9.378,9.378,0,0,1-3.941-2.082c1.563-.292,2.486,1.493,3.968,1.439.683-.931.376-1.506-.474-2.156-.992-.76-2.253-.574-3.223-1.276-2.371-.808-4.441-2.34-6.819-3.151,1.7-.145,3.208.6,4.744,1.158a6.027,6.027,0,0,0,2.518.607c.559-.286,1.049-.684.277-1.205-.575-.387-.641-1.213-1.322-1.467-.147-.055-.215-.344-.32-.526,1.525-.626.643-1.721.542-2.721-.031-.308.418-.824.871-.9a.868.868,0,0,1,1.045.611c.194.582.517.89,1.1.549.364-.214.913-.178,1.049-.711.184-.718-.684-.587-.852-1.075.725-.624,1.3-.006,1.887.25.342.147.731.665.947.58,2.243-.88,3.589,1.486,5.522,1.65a1.557,1.557,0,0,1,2.433-.931,22.491,22.491,0,0,0,3.794,1.477,14.628,14.628,0,0,0,4.094.484c1.438-.032,2.873.9,4.344,1.231,2.547.574,4.918,2.02,7.469,2.22a19.222,19.222,0,0,1,5.961,1.364c.715.295.943-.234,1.162-.815q1.37-3.609,2.777-7.2c.27-.688.606-1.345.912-2.016a1.4,1.4,0,0,1,.384-1.013c1.885-5.3,4.038-10.473,6.158-15.666.928-2.557,1.541-5.255,3.013-7.568.518-1.293.66-2.763,1.608-3.854h-.015q.693-2.055,1.389-4.11a26.186,26.186,0,0,1,2.209-5.239c1.533-3.789,2.882-7.655,4.654-11.346,1.593-3.32,2.847-6.824,4.253-10.245a5.731,5.731,0,0,1,.983-1.954c1.759-3.19,2.325-6.937,4.192-10.074a2.02,2.02,0,0,1,.213-.007,2.02,2.02,0,0,0-.213.007c2.717-6.7,5.49-13.381,8.735-19.825a17.687,17.687,0,0,1,2.051-3.875.212.212,0,0,1,.08-.221,16.036,16.036,0,0,1,2.213-3.849c.217-1.9,1.542-3.114,2.551-4.5,2.663-3.661,4.981-7.62,8.227-10.78v-.02a3.682,3.682,0,0,1,1.333-2.074c.463-.838,1.025-1.675,2.022-.923.886.668.729,1.866.635,2.812-.074.731-.605,1.419-.608,2.25,1,.28.793-1.286,1.692-1.032.305,1.3-.877,2.07-1.085,3.2a5.989,5.989,0,0,1-.5.818,5.989,5.989,0,0,0,.5-.818l.975-.009c.413-.766,1.165-.652,2.011-1.041-.276,1.015-.215,1.83-.844,2.411.326,1.081.342,2.507,2.066,1.974.345-.107.8.211.654.52-.779,1.665.471,2.607,1.15,3.691a1.617,1.617,0,0,1,.256,1.675,3.177,3.177,0,0,0,.026,2.367,3.532,3.532,0,0,1,.081,2.172c-.174.925-.888,2.172.82,2.461.134.023.334.39.308.564-.4,2.678,1.748,4,2.956,5.649a15.254,15.254,0,0,1,2.682,5.193c-.03.048-.061.094-.089.143.027-.049.058-.1.089-.143q.217.371.432.741h0a1.733,1.733,0,0,1,.668,1.223l.027.121c.371.309.266.789.382,1.191l.033.029c.92.791,1.021,1.974,1.308,3.068a1.3,1.3,0,0,1-.368-.007,1.3,1.3,0,0,0,.368.007,2.5,2.5,0,0,1,.454,1.351,3.907,3.907,0,0,1,.718,2.135l.687,2c1.708,4.393,2.413,9.06,3.335,13.67.459,2.3.989,4.586,1.487,6.876l.187.676a56.146,56.146,0,0,1,1.721,8.631q.266,1.411.529,2.822a1.919,1.919,0,0,1,.306,1.739h0q.149.676.3,1.353h0l.126.7a10.084,10.084,0,0,1,.625,3.481.641.641,0,0,1,.183.7c.38,2.043,1,4.06.827,6.174-.056.679.523,1.114.416,1.76l.278,1.395a7.124,7.124,0,0,1,.487,2.786A22.961,22.961,0,0,1,1040.6,119c.083.445.165.892.247,1.337a.138.138,0,0,1,.038.186.651.651,0,0,1,.186.932l.609,3.116a.9.9,0,0,1,.138,1.064h0l.135.655a11.831,11.831,0,0,1,.66,3.818,2.47,2.47,0,0,1,.346,1.754q.507,2.6,1.012,5.2c1.169,4.721,2.286,9.46,3.521,14.164,2.728,10.387,4.151,21.094,6.9,31.476a3.214,3.214,0,0,1-.011.856h0l.339,1.364h0a1.461,1.461,0,0,1,.315,1.412q.2,1.2.4,2.4a.608.608,0,0,1,.185.734c.045.335.088.669.134,1a.562.562,0,0,1,.112.74c.064.332.129.665.194,1h0a.564.564,0,0,1,.16.737l.195.991a23.221,23.221,0,0,1,.873,5.2q.1.505.2,1.009a4.322,4.322,0,0,1,.233,1.776,2.29,2.29,0,0,1,.244,1.74q.082.522.165,1.046a2.646,2.646,0,0,0-2.757,2.479,2.646,2.646,0,0,1,2.757-2.479,3.671,3.671,0,0,1,.247,1.723q.063,1.047.129,2.1c.691.686.479,1.606.552,2.447.109,1.256,1.242,2.37.461,3.76-.057.1.038.353.127.486a7.647,7.647,0,0,1,.9,6.3c-.089.376.109.5.418.558.221.042.7.03.253.451-1.036.98-.86,1.6.448,1.958.21.056.48.1.451.393-.26,2.627.887,5,1.191,7.532.105.87-.1,1.837.518,2.607a.36.36,0,0,1,.008.331c-1.226,1.257-.4,1.994.35,3.171.961,1.506.407,3.674,1.284,5.365.025.048.047.143.025.165-1.278,1.269-.406,2,.39,3.132.959,1.364.507,3.3.584,4.941.038.811.8,1.383.4,2.356-.236.565.4,1.451-.481,2.045a.43.43,0,0,0,.354.769c.474-.055.834-.02.714.539-.381,1.767.248,3.435.47,5.12.3,2.247.775,4.473.965,6.74.123,1.46.156,2.928.229,4.392-.229.4.462,1.392-.77,1.185-.733-.123-.467.613-.369.977a28.645,28.645,0,0,1,.829,6.155C1069.54,284.064,1068.7,285.922,1069.484,287.749Zm-44.444-85.489c-.1-.348-.195-.7-.292-1.046a.912.912,0,0,0,.171.017.912.912,0,0,1-.171-.017l-.06-.692a50.221,50.221,0,0,1-2.524-10.759,2.06,2.06,0,0,0,.2.1,2.06,2.06,0,0,1-.2-.1,3.313,3.313,0,0,1-.416-1.727,7.859,7.859,0,0,1-.769-3.072h0q-.263-.889-.526-1.779a4.672,4.672,0,0,0,1.444-.5,4.672,4.672,0,0,1-1.444.5c-1.081-4.09-2.174-8.177-3.241-12.271-2.443-9.365-5.387-18.569-7.567-28.024-2.332-10.113-4.965-20.146-6.729-30.4a4.45,4.45,0,0,0,.447-.113c-.139.043-.289.079-.447.113l-1.136-7q-.162-.867-.322-1.736a3.663,3.663,0,0,1-.343-2.075c-.161-.64-.341-1.276-.479-1.922-.108-.5-.345-.652-.784-.431h0a12.009,12.009,0,0,1-1.483,4.091c-1.352,2.73-2.593,5.528-4.017,8.227-1.161,2.2-1.537,4.826-2.95,7.071-.946,1.5-1.611,3.3-2.6,4.854-.158.418.025.9-.3,1.3-1.521,1.9-1.887,4.46-3.191,6.476-2.472,3.817-3.4,8.453-5.881,12.258-.23.733-.218,1.581-.887,2.106a78.755,78.755,0,0,1-3.521,7.66c-.755,1.309-.958,2.942-1.83,4.272-.338.514.5.788.866,1.01,3.589,2.182,6.65,5.125,9.936,7.74a1.746,1.746,0,0,1,.278.416l-.056.022.056-.022a2.926,2.926,0,0,1,1.494,1.094,69.013,69.013,0,0,1,10.125,8.4,34.813,34.813,0,0,1,4.46,3.607c1.274-.153.853,1.572,1.778,1.8a43.036,43.036,0,0,1,6.29,5.321c1.518,1.432,2.954,2.921,4.616,4.217a42.08,42.08,0,0,1,5.447,5.658c.74.848,1.827,1.257,2.375,2.3a15.558,15.558,0,0,1,.059,1.562,15.6,15.6,0,0,0-.059-1.564l1.834,1.714a1.356,1.356,0,0,1,.776.71h0c.717.114.554,1.428,1.5,1.231h0Z" transform="translate(-20.688 -5.996)" fill="#fff"></path></svg>